<svg width="11" height="20" xmlns="http://www.w3.org/2000/svg" xmlns:xlink="http://www.w3.org/1999/xlink" overflow="hidden"><defs><clipPath id="clip0"><rect x="634" y="350" width="11" height="20"/></clipPath></defs><g clip-path="url(#clip0)" transform="translate(-634 -350)"><path d="M637.298 359.999 644.564 352.738C645.102 352.262 645.152 351.44 644.676 350.901 644.602 350.818 644.519 350.745 644.426 350.683 643.859 350.272 643.077 350.33 642.577 350.82L634.421 359.04C633.891 359.526 633.856 360.349 634.342 360.879 634.367 360.906 634.393 360.933 634.421 360.958L642.573 369.179C643.074 369.669 643.855 369.727 644.423 369.316 645.02 368.916 645.18 368.108 644.781 367.511 644.719 367.419 644.646 367.335 644.564 367.262Z"/></g></svg>