<svg width="10" height="7" xmlns="http://www.w3.org/2000/svg" xmlns:xlink="http://www.w3.org/1999/xlink" overflow="hidden"><defs><clipPath id="clip0"><rect x="826" y="403" width="10" height="7"/></clipPath></defs><g clip-path="url(#clip0)" transform="translate(-826 -403)"><path d="M830.999 407.889 827.213 403.309C827.09 403.126 826.88 403.022 826.66 403.034 826.437 403.059 826.243 403.195 826.142 403.396 825.928 403.763 825.956 404.223 826.213 404.562L830.499 409.704C830.682 409.981 831.055 410.056 831.331 409.873 831.397 409.829 831.455 409.771 831.499 409.704L835.785 404.561C836.042 404.222 836.07 403.762 835.856 403.395 835.755 403.194 835.561 403.058 835.338 403.033 835.118 403.021 834.908 403.125 834.785 403.307Z" fill="#6400FF"/></g></svg>