<svg width="20" height="18" xmlns="http://www.w3.org/2000/svg" xmlns:xlink="http://www.w3.org/1999/xlink" overflow="hidden"><defs><clipPath id="clip0"><rect x="651" y="173" width="20" height="18"/></clipPath></defs><g clip-path="url(#clip0)" transform="translate(-651 -173)"><path d="M665.388 173C663.694 173.009 662.089 173.761 661 175.058 659.911 173.761 658.306 173.009 656.612 173 653.685 172.966 651.284 175.311 651.249 178.239 651.249 178.291 651.249 178.343 651.25 178.396 651.25 182.122 654.565 185.113 659.584 189.726L661 191.001 662.416 189.726C667.436 185.113 670.75 182.12 670.75 178.396 670.803 175.468 668.472 173.053 665.545 173 665.492 173 665.44 172.999 665.388 173ZM661.6 188.437 661.405 188.62 661.002 188.986 660.599 188.62 660.404 188.437C658.359 186.663 656.437 184.753 654.652 182.718 653.53 181.546 652.86 180.015 652.758 178.396 652.743 177.359 653.142 176.358 653.866 175.616 654.593 174.889 655.584 174.486 656.612 174.5 657.863 174.511 659.047 175.067 659.854 176.023L661 177.388 662.149 176.023C662.954 175.067 664.137 174.51 665.388 174.5 666.419 174.486 667.411 174.889 668.142 175.616 668.867 176.358 669.266 177.359 669.253 178.396 669.148 180.014 668.478 181.544 667.359 182.718 665.571 184.753 663.647 186.663 661.6 188.437Z" fill="#6400FF"/></g></svg>