<svg width="20" height="11" xmlns="http://www.w3.org/2000/svg" xmlns:xlink="http://www.w3.org/1999/xlink" overflow="hidden"><defs><clipPath id="clip0"><rect x="716" y="222" width="20" height="11"/></clipPath></defs><g clip-path="url(#clip0)" transform="translate(-716 -222)"><path d="M725.999 229.702 718.738 222.436C718.262 221.898 717.44 221.848 716.901 222.324 716.818 222.398 716.745 222.481 716.683 222.573 716.272 223.141 716.33 223.923 716.82 224.423L725.04 232.579C725.526 233.109 726.349 233.144 726.879 232.658 726.906 232.633 726.933 232.607 726.958 232.579L735.179 224.427C735.669 223.926 735.727 223.145 735.316 222.577 734.916 221.98 734.108 221.82 733.511 222.219 733.419 222.281 733.335 222.354 733.262 222.436Z"/></g></svg>