<svg width="12" height="13" xmlns="http://www.w3.org/2000/svg" xmlns:xlink="http://www.w3.org/1999/xlink" overflow="hidden"><defs><clipPath id="clip0"><rect x="686" y="400" width="12" height="13"/></clipPath></defs><g clip-path="url(#clip0)" transform="translate(-686 -400)"><path d="M695.916 409.189C695.441 409.191 694.985 409.37 694.636 409.691L689.983 406.983C690.062 406.683 690.062 406.369 689.983 406.069L694.584 403.387C695.377 404.122 696.616 404.076 697.351 403.283 698.086 402.49 698.04 401.251 697.247 400.516 696.454 399.781 695.215 399.827 694.48 400.62 694.143 400.984 693.956 401.462 693.958 401.958 693.961 402.112 693.981 402.265 694.017 402.415L689.416 405.097C688.626 404.358 687.387 404.399 686.648 405.188 685.909 405.978 685.95 407.217 686.74 407.956 687.492 408.66 688.663 408.66 689.416 407.956L694.063 410.67C694.029 410.809 694.011 410.951 694.011 411.094 694.01 412.147 694.863 413 695.916 413.001 696.968 413.002 697.822 412.149 697.823 411.096 697.823 410.043 696.97 409.19 695.918 409.189 695.917 409.189 695.916 409.189 695.916 409.189Z" fill="#C0C0C0"/></g></svg>