<svg width="18" height="18" xmlns="http://www.w3.org/2000/svg" xmlns:xlink="http://www.w3.org/1999/xlink" overflow="hidden"><defs><clipPath id="clip0"><rect x="141" y="14" width="18" height="18"/></clipPath></defs><g clip-path="url(#clip0)" transform="translate(-141 -14)"><path d="M150.565 16.711C150.597 16.0943 151.045 15.5786 151.651 15.462 152.275 15.295 152.938 15.5152 153.337 16.022L157.369 19.512C157.877 19.9208 157.957 20.6636 157.548 21.1712 157.495 21.237 157.435 21.297 157.369 21.35 156.753 21.8575 155.864 21.8575 155.247 21.35L153.567 19.894 153.567 29.702C153.446 30.5304 152.676 31.1036 151.848 30.9823 151.185 30.8853 150.665 30.3648 150.567 29.702L150.567 16.711Z" stroke="#FFFFFF" stroke-width="2"/><path d="M149.435 29.29C149.403 29.9067 148.955 30.4224 148.349 30.539 147.725 30.706 147.062 30.4858 146.663 29.979L142.631 26.49C142.123 26.0812 142.043 25.3384 142.452 24.8308 142.505 24.765 142.565 24.705 142.631 24.652 143.247 24.1445 144.136 24.1445 144.753 24.652L146.433 26.108 146.433 16.299C146.491 15.5275 147.161 14.9474 147.933 14.999 148.704 14.9474 149.374 15.5275 149.433 16.299L149.433 29.29Z" stroke="#FFFFFF" stroke-width="2"/></g></svg>