<svg width="33" height="30" xmlns="http://www.w3.org/2000/svg" xmlns:xlink="http://www.w3.org/1999/xlink" overflow="hidden"><defs><clipPath id="clip0"><rect x="233" y="579" width="33" height="30"/></clipPath></defs><g clip-path="url(#clip0)" transform="translate(-233 -579)"><path d="M16.0579 5.41215 14.6191 3.96052C11.2405 0.553676 5.04603 1.7304 2.81077 6.01336 1.76123 8.02895 1.52614 10.9374 3.44153 14.6499 5.28883 18.2251 9.13116 22.5067 16.0592 27.1712 22.9885 22.5067 26.8282 18.2238 28.6768 14.6499 30.5935 10.9348 30.3584 8.02766 29.3076 6.01336 27.0723 1.7304 20.8765 0.551107 17.498 3.95795ZM16.0579 29.5465C-14.7193 9.58849 6.58245-5.98767 15.7059 2.25196 15.8267 2.36115 15.9448 2.47292 16.0592 2.58853 16.1722 2.47206 16.29 2.3603 16.4125 2.25324 25.5333-5.99281 46.8364 9.5872 16.0579 29.5465Z" stroke="#FFFFFF" stroke-width="0.385389" fill="#333333" fill-rule="evenodd" transform="matrix(1.012 0 0 1 233.249 579.224)"/></g></svg>