<svg width="20" height="18" xmlns="http://www.w3.org/2000/svg" xmlns:xlink="http://www.w3.org/1999/xlink" overflow="hidden"><defs><clipPath id="clip0"><rect x="554" y="610" width="20" height="18"/></clipPath></defs><g clip-path="url(#clip0)" transform="translate(-554 -610)"><path d="M573.611 613.406C574.426 615.992 573.879 618.814 572.157 620.907 571.103 622.268 569.89 623.498 568.544 624.571 567.355 625.633 564.695 627.735 563.99 627.793 563.319 627.53 562.702 627.143 562.173 626.654 559.392 624.626 556.4 622.158 554.886 619.461 553.608 616.871 553.608 613.668 555.587 611.682 558.068 609.548 561.799 609.785 563.99 612.216 564.515 611.562 565.18 611.032 565.935 610.667 568.815 609.416 572.171 610.614 573.607 613.406Z" fill="#FF4848"/></g></svg>